<svg id="Layer_1" data-name="Layer 1" xmlns="http://www.w3.org/2000/svg" xmlns:xlink="http://www.w3.org/1999/xlink" viewBox="0 0 500 500"><defs><style>.cls-1{fill:none;}.cls-2{clip-path:url(#clip-path);}.cls-3{fill:#0377be;}</style><clipPath id="clip-path"><rect class="cls-1" x="-69.11" y="-145.76" width="621.69" height="804.55"/></clipPath></defs><g class="cls-2"><path class="cls-3" d="M356.63,152.53q-23.89-12.18-31-25.14-10-18.19,2.95-42.49,11-21.29,25.47-29.23,6-3.27,10.34-2.43t7.24,6.09q3.69,6.72.11,16.15a43.06,43.06,0,0,1-12.16,18Q346,105.5,345,107.05q-4.2,6.53-.78,12.75,5.07,9.23,15.53,3.48,7.73-4.25,16.86-14.77Q393.14,89,396.48,70.33q3.43-19.72-4.63-34.43Q385.69,24.68,375,23.44t-26.18,7.24q-29.41,16.16-45.71,49.09-16.63,34.11-2.95,59,10.26,18.69,39.29,32.59,21.15,10.14,26.88,20.6,4.67,8.47,3.17,16.42-1.92,9.5-11.64,14.83-10,5.47-21.8,2.23c-8.92-2.45-33.68-25-37.44-74.37.34-2.16-3.43-3.43-6.72-4.74-.94-5.77-2.21-9.92-3.85-12.47q-3.22-5-9.95-6.34a20.41,20.41,0,0,0-15,3.29q-11.61,7.46-18.3,24.49a109.66,109.66,0,0,0-5.15,17.6h0v0a126.16,126.16,0,0,0-2,13.14c-2.36,13.07-5.81,39.62-13.68,51.21q-2.19-26.73.1-63.2,1.33-23.38,3.37-50.57,1.83-22.33-1.75-29.77a12.2,12.2,0,0,0-6.78-6.2,11.14,11.14,0,0,0-9.16,0q-6.66,3.23-10,15.89-1.59,5.19-6.66,31.31-5.37,29.43-6.17,33-4.19,16.86-13.31,43.05-14.7,41.51-24.94,46.45-5.12,2.48-7.71-2.91-4.46-9.21,0-36a293.54,293.54,0,0,1,11.05-45.75q6.78-21.27,7.69-26.92a18.65,18.65,0,0,0-1.82-11.28,10.09,10.09,0,0,0-6-5.29,10.26,10.26,0,0,0-8.9-.13q-14.85,7.19-25.63,69.84-10.64,61.66,2.71,89.3,3.72,7.68,10,10.95,8.2,3.93,16.91-.27,17.91-8.65,32.44-47.24,7.26-19.61,17.07-57.5.22,20.73-.14,46.8-.08,24,1,38-5.21,8.19-14.67,21.92-23.35,34-33.81,54.22-35.91,68.79-16.63,108.74,6.79,14.07,18.68,19.72,15.27,7.44,30.9-.09Q219.89,465,225.44,385q2.76-43.34-.71-105.43c11.92-20.71,11.92-20.71,18.59-33.88a86.12,86.12,0,0,0,9.46,20.57,31.69,31.69,0,0,0,12,11.41q10.88,5.5,20.24-.51,10.74-6.92,13-27.45a148.28,148.28,0,0,0,.52-20.58,60.38,60.38,0,0,0,8.59,11.22,29.49,29.49,0,0,0,14.36,10.45l.34.1q21.87,10.29,45.75-2.81a55.9,55.9,0,0,0,22.93-22.64q12.6-23.13.56-45.06-8.07-14.72-34.4-27.83M198.5,392.6q-3.88,51.45-23.09,60.72a13.9,13.9,0,0,1-19-6.61q-11-22.8,4.94-63,16-39.31,36.51-66.25.1,11.32.23,20.73,1,45.92.39,54.42m79.58-139.2a6.75,6.75,0,0,1-6.38.92c-2.07-.79-4-2.64-5.88-5.53q-11.15-17.34-10.76-52.73a74,74,0,0,0,.29-8.08q1.75-27.12,13.52-34.69a10.06,10.06,0,0,1,6.37-1.52,20.39,20.39,0,0,1,8.13,2.73,30.18,30.18,0,0,0-1.8,8.26q-.21,5.78,1.63,22,2.94,24.8,2.94,38.51.25,24.81-8.06,30.15"/></g></svg>